<?xml version="1.0" standalone="no"?>
<!DOCTYPE svg PUBLIC "-//W3C//DTD SVG 20010904//EN"
 "http://www.w3.org/TR/2001/REC-SVG-20010904/DTD/svg10.dtd">
<svg version="1.0" xmlns="http://www.w3.org/2000/svg"
 width="100.000000pt" height="100.000000pt" viewBox="0 0 100.000000 100.000000"
 preserveAspectRatio="xMidYMid meet">
<metadata>
Created by potrace 1.10, written by Peter Selinger 2001-2011
</metadata>
<g transform="translate(0.000000,100.000000) scale(0.050000,-0.050000)"
fill="#000000" stroke="none">
<path d="M830 1980 c-777 -128 -1096 -1085 -554 -1664 509 -545 1453 -333
1670 374 222 724 -374 1413 -1116 1290z m383 -148 c637 -169 857 -944 405
-1422 -462 -489 -1276 -276 -1451 380 -164 616 428 1207 1046 1042z"/>
<path d="M518 1450 c-1 0 -4 -56 -7 -125 l-6 -125 188 0 187 0 0 -430 0 -430
120 0 120 0 0 430 0 430 187 0 188 0 -4 122 -3 122 -484 3 c-266 2 -485 3
-486 3z"/>
</g>
</svg>
